<svg width="154" height="151" viewBox="0 0 154 151" fill="none" xmlns="http://www.w3.org/2000/svg">
<path d="M0 2.49515C1.07062 0.479983 2.7836 -0.0774039 4.96766 0.00834792C8.26516 0.136976 11.5627 0.00834792 14.8602 0.0512238C22.8256 0.0940998 28.7782 4.46744 31.262 12.0994C32.0757 14.6719 32.9322 17.2016 33.7459 19.7741C34.0028 20.5888 34.3454 20.9318 35.2875 20.9318C47.15 21.0604 59.0124 21.3177 70.9177 21.4463C96.9123 21.7893 122.907 22.1323 148.901 22.4753C150.229 22.4753 151.471 22.604 152.584 23.4186C153.741 24.2332 154.212 25.348 153.912 26.6772C150.786 39.3684 148.173 52.1883 144.619 64.751C142.606 71.9113 135.54 77.3136 128.046 78.0425C118.796 78.9858 109.546 80.0148 100.295 80.9581C91.1738 81.9014 82.0949 82.8017 72.9733 83.745C66.5924 84.3882 60.2543 85.117 53.8735 85.8031C53.488 85.8459 53.1454 85.7602 52.8885 86.2318C51.1755 89.619 50.2762 93.0491 52.1176 96.6935C53.8306 100.081 56.6571 101.796 60.4256 101.796C70.104 101.839 79.7824 101.796 89.418 101.796C102.437 101.796 115.455 101.796 128.517 101.796C131.172 101.796 132.671 102.868 132.971 105.054C133.228 106.984 131.9 108.742 129.973 108.999C129.373 109.085 128.774 109.085 128.174 109.085C105.863 109.085 83.5938 108.999 61.2821 109.128C52.6315 109.17 45.3942 103.339 44.0666 94.9356C43.4671 91.1197 44.1094 87.4752 45.8652 84.0023C46.5933 82.5874 46.6361 81.3011 46.1222 79.7576C38.842 57.9337 31.6046 36.067 24.4101 14.2003C22.7827 9.61255 19.6137 7.29725 14.6889 7.29725C11.4342 7.29725 8.17952 7.2115 4.92484 7.34013C2.82643 7.38301 1.15627 6.69699 0 4.8962C0 4.12444 0 3.30979 0 2.49515ZM145.861 29.7642C145.176 29.7642 144.747 29.7642 144.276 29.7642C108.775 29.2497 73.2302 28.6923 37.7285 28.135C36.5295 28.135 36.6151 28.478 36.9149 29.4212C42.1823 45.4139 47.4498 61.4067 52.6744 77.4423C52.9313 78.2569 53.2739 78.5142 54.1304 78.4284C58.4557 77.9568 62.781 77.528 67.1063 77.0993C73.3587 76.4561 79.6539 75.7701 85.9063 75.127C92.1587 74.4838 98.454 73.8836 104.706 73.2404C112.029 72.4687 119.31 71.6111 126.633 70.968C132.328 70.4535 136.568 67.3235 137.981 61.7068C140.722 51.1164 143.249 40.5261 145.861 29.7642Z" fill="#08080A"/>
<path d="M116.954 150.074C108.09 150.074 100.724 142.699 100.852 133.91C100.938 125.035 108.261 117.789 117.083 117.831C125.819 117.874 133.099 125.249 133.142 133.953C133.099 142.785 125.819 150.074 116.954 150.074ZM116.911 142.828C121.836 142.828 125.776 138.926 125.819 133.996C125.862 129.151 121.836 125.077 116.997 125.035C112.201 124.992 108.132 129.065 108.09 133.91C108.09 138.841 112.029 142.828 116.911 142.828Z" fill="#08080A"/>
<path d="M49.1199 150.074C40.1695 150.074 33.0178 142.957 33.0178 133.996C33.0178 125.12 40.2124 117.831 49.0771 117.831C57.899 117.831 65.222 125.12 65.222 133.953C65.222 142.785 57.9846 150.031 49.1199 150.074ZM49.1199 142.828C54.0019 142.828 58.0274 138.798 58.0274 133.953C58.0274 129.151 53.8734 125.035 49.0771 125.035C44.2379 125.035 40.2552 129.065 40.2552 133.996C40.2552 138.883 44.1951 142.828 49.1199 142.828Z" fill="#070709"/>
</svg>