<svg width="136" height="149" viewBox="0 0 136 149" fill="none" xmlns="http://www.w3.org/2000/svg">
<path d="M100.647 148.864C98.7281 148.909 96.8551 148.955 94.9365 148.955C94.2055 148.636 93.5203 148.636 92.8351 148.955C91.2818 148.955 89.6829 148.955 88.1297 149C87.9927 148.864 87.8556 148.864 87.7642 149C73.1457 149 58.5272 149 44.868 149C47.8374 148.045 48.3856 147.271 48.3856 142.995C48.3399 138.536 48.2486 134.032 48.2486 129.573C48.2486 128.572 48.1572 128.254 46.9237 128.481C39.4774 129.892 32.1225 129.983 25.133 126.388C20.3363 123.932 16.9558 120.246 14.9 115.242C12.3875 109.145 8.91558 103.822 3.02249 100.365C2.06315 99.7731 1.19518 98.9997 0.509933 98.0898C-0.403725 96.8614 -0.0839448 95.906 1.42359 95.4055C3.38795 94.7686 5.35232 94.905 7.31668 95.451C12.8443 96.9069 16.8187 100.41 19.7881 105.096C22.5748 109.555 26.0924 113.149 31.2545 114.696C36.9192 116.425 42.3555 115.424 47.7004 113.331C48.2486 113.104 48.4313 112.785 48.5227 112.194C49.2079 107.598 51.0809 103.549 54.6442 100.092C51.6291 99.5911 48.7967 99.1817 46.0101 98.6357C40.2997 97.4983 34.8178 95.7695 29.747 92.9032C22.3464 88.7631 16.8644 82.8486 13.758 75.0232C9.73788 64.8776 8.55012 54.3224 10.6059 43.5398C11.7936 37.3524 14.6259 31.9383 18.8288 27.2067C19.6511 26.2513 19.7424 25.5234 19.377 24.386C16.7274 16.4696 17.6867 8.68977 20.4734 1.00092C20.8388 -0.0454962 21.7525 0.0454962 22.5291 0.0454962C26.2294 0.0454962 29.7013 1.00092 33.1275 2.32031C38.0156 4.18565 42.5382 6.73344 46.9237 9.5542C47.609 10.0092 48.1572 10.2366 49.1165 10.0092C64.8314 6.0055 80.592 6.05099 96.3526 9.91817C97.312 10.1456 97.9059 10.0092 98.6825 9.5087C104.484 5.77802 110.469 2.50229 117.184 0.773435C119.103 0.272977 121.067 0 123.077 0C124.219 0 124.904 0.409466 125.316 1.59237C127.92 9.28122 128.696 17.0156 126.138 24.8864C125.864 25.6598 126.001 26.2058 126.595 26.8427C134.041 35.2595 136.645 45.2232 135.868 56.2788C135.412 62.7847 134.406 69.1997 131.848 75.2507C127.28 85.9423 119.057 92.5847 108.184 96.2244C102.703 98.0898 96.9922 99.1362 91.1905 99.7731C91.1905 99.9551 91.1448 100.137 91.2362 100.228C95.7131 104.732 97.2206 110.419 97.312 116.516C97.449 125.66 97.312 134.76 97.312 143.904C97.312 146.634 98.0429 147.544 100.738 148.363C100.693 148.591 100.693 148.727 100.647 148.864Z" fill="#030304"/>
</svg>
