<svg width="149" height="150" viewBox="0 0 149 150" fill="none" xmlns="http://www.w3.org/2000/svg">
<path d="M124.496 83.4022C124.496 83.2565 124.544 83.1108 124.544 82.9165C125.176 82.7222 125.662 83.2079 126.342 83.4022C125.71 83.6451 125.127 83.6936 124.496 83.4022Z" fill="#7A777D"/>
<path d="M116.238 83.5479C116.967 83.2079 117.744 83.2079 118.473 83.5479C117.744 83.7422 116.967 83.6936 116.238 83.5479Z" fill="#7A777D"/>
<path d="M110.798 83.5965C110.944 83.4508 111.089 83.4508 111.186 83.5965C111.041 83.5965 110.895 83.5965 110.798 83.5965Z" fill="#7A777D"/>
<path d="M82.3819 63.341C89.7652 51.6832 100.257 47.0201 113.178 47.2144C119.784 47.3115 126.196 48.283 132.073 51.3918C139.845 55.5206 144.071 62.3695 146.354 70.6272C148.2 77.1847 148.832 83.9851 148.88 90.7369C148.977 109.632 148.929 128.479 148.977 147.374C148.977 148.783 148.637 149.075 147.277 149.075C138.145 149.026 128.965 149.026 119.833 149.075C118.375 149.075 117.938 148.783 117.938 147.229C117.987 131.928 117.987 116.627 117.938 101.326C117.938 96.1286 117.89 90.9312 116.675 85.7823C114.538 76.7475 108.126 73.5902 99.6258 74.3674C88.4051 75.3874 85.4421 82.8679 84.2278 90.2997C83.6449 94.0399 83.5477 97.7802 83.5477 101.52C83.5477 116.821 83.5477 132.122 83.5963 147.423C83.5963 148.929 83.2563 149.317 81.7505 149.269C72.6185 149.172 63.438 149.22 54.306 149.269C52.9459 149.269 52.6059 148.977 52.6059 147.569C52.6545 115.461 52.6545 83.3536 52.6059 51.246C52.6059 49.8374 52.9459 49.4488 54.3546 49.4488C63.0008 49.5459 71.6956 49.5459 80.3418 49.4488C81.8962 49.4488 82.4305 49.7402 82.3819 51.3918C82.2848 55.2777 82.3819 59.0665 82.3819 63.341Z" fill="#030304"/>
<path d="M33.4191 99.3831C33.4191 115.413 33.3705 131.442 33.4677 147.472C33.4677 149.026 33.0305 149.317 31.5733 149.317C22.4413 149.22 13.2608 149.269 4.1288 149.317C2.76873 149.317 2.42871 148.977 2.47728 147.617C2.52585 115.51 2.52585 83.4022 2.47728 51.2946C2.47728 49.8374 2.86587 49.4974 4.27453 49.4974C13.4065 49.5459 22.587 49.5459 31.719 49.4974C33.1762 49.4974 33.4677 49.9345 33.4677 51.2946C33.3705 67.3727 33.4191 83.4022 33.4191 99.3831Z" fill="#020304"/>
<path d="M17.9239 36.0423C8.1119 36.0423 0 27.9304 0 17.9727C0 8.11211 8.1119 -0.0483585 17.9725 0.000215735C27.7359 0.04879 35.8478 8.16069 35.8478 17.9241C35.8964 27.8333 27.7845 36.0423 17.9239 36.0423Z" fill="#040506"/>
</svg>
