<svg width="439" height="396" viewBox="0 0 439 396" fill="none" xmlns="http://www.w3.org/2000/svg">
<path d="M273.574 205.216C272.099 202.17 270.943 199.771 269.752 197.236C267.318 192.251 267.318 192.251 261.967 193.319C257.932 194.107 253.934 195.032 249.9 195.82C248.087 196.159 246.238 196.362 245.904 198.94C245.674 200.539 244.461 199.839 243.682 199.389C240.514 197.676 239.393 193.218 241.38 189.977C243.43 186.427 248.197 185.369 251.461 187.715C253.44 189.088 262.372 188.818 264.028 187.349C264.501 186.93 264.565 186.62 264.282 186.11C264.122 185.787 263.962 185.464 263.802 185.14C259.837 175.808 259.837 175.808 249.572 177.387C246.904 177.809 244.149 178.181 241.48 178.604C240.077 178.833 238.625 179.149 238.344 180.835C237.81 183.76 236.488 182.65 235.029 181.577C232.248 179.394 231.706 175.732 233.643 172.578C235.529 169.51 239.668 167.742 242.312 169.962C246.019 173.141 249.734 171.707 253.432 171.301C254.425 171.182 255.331 171.012 256.597 170.819C255.063 167.278 253.701 163.836 252.34 160.394C251.837 159.064 250.644 159.53 249.788 159.613C243.671 160.008 237.641 160.452 231.574 160.76C230.135 160.853 228.596 161.119 228.452 162.768C228.115 166.153 226.386 164.347 225.31 163.61C222.393 161.464 221.918 156.686 224.151 153.818C226.67 150.654 231.871 149.846 234.425 152.822C236.227 154.902 238.013 155.009 240.308 154.833C243.237 154.561 246.252 154.339 249.303 154.253C250.829 154.21 251.266 153.654 251.41 152.005C252.473 130.564 253.672 109.086 254.785 87.5584C255.08 82.6479 253.908 81.2783 249.097 80.8103C235.385 79.3601 222.918 82.5543 211.645 90.4796C209.915 91.6751 208.209 93.2303 206.557 90.8911C204.856 88.6385 206.772 87.3198 208.415 86.0744C221.33 76.9036 235.647 73.5067 251.204 75.5606C257.427 76.3821 260.571 80.7374 260.255 87.4835C259.186 107.535 258.154 127.724 256.861 147.762C256.45 153.875 257.54 159.586 260.344 165.13C265.042 174.194 269.093 183.576 273.841 192.553C280.273 204.811 285.153 217.559 288.567 230.846C291.126 241.215 297.033 248.782 304.83 255.478C317.31 266.263 329.689 277.22 341.546 288.685C356.193 302.915 357.661 326.972 345.469 343.489C343.809 345.764 342.446 348.325 340.476 350.537C337.11 354.367 332.899 355.861 328.152 355.083C306.015 351.425 284.796 345.178 265.987 332.356C255.698 325.377 245.56 318.137 235.371 310.985C224.626 303.396 213.744 295.843 202.999 288.254C189.93 279.091 176.946 269.979 163.877 260.816C153.601 253.614 143.239 246.361 132.964 239.158C119.808 229.946 106.651 220.734 93.4949 211.521C83.2196 204.319 72.8576 197.066 62.5323 189.95C58.7852 187.44 55.5113 184.511 53.1472 180.605C49.8341 175.344 46.4709 170.169 43.1078 164.994C36.0717 154.581 36.137 148.268 43.3995 138.489C47.9289 132.444 52.7181 126.549 57.5073 120.653C63.693 113.14 71.4473 107.109 79.0516 101.338C95.0066 89.3029 106.995 73.9386 118.996 58.3511C120.993 55.6932 123.126 52.9987 125.296 50.4408C128.325 46.9937 145.576 44.7139 149.51 47.1005C152.195 48.6505 153.077 51.1227 153.262 54.0012C153.807 59.8581 154.265 65.665 154.809 71.5219C155.745 81.3001 160.175 86.6286 169.552 89.3867C182.05 93.1386 194.462 96.8406 207.011 100.506C213.044 102.257 219.347 101.739 225.497 102.288C234.275 103.083 237.239 105.949 237.732 114.894C238.011 119.212 238.239 123.616 238.518 127.934C239.075 136.569 235.845 140.363 227.356 141.466C219.277 142.46 211.285 143.503 203.205 144.497C202.902 145.823 203.841 146.596 204.371 147.479C212.678 162.09 221.035 176.615 229.206 191.263C234.104 199.979 241.365 204.403 251.249 204.682C258.642 204.678 265.798 204.883 273.574 205.216ZM346.237 307.559C345.326 303.338 343.781 299.213 340.804 296.57C338.715 294.787 335.11 296.631 332.195 296.68C331.749 296.654 331.202 296.8 330.706 296.86C321.82 297.85 313.692 295.928 306.248 290.822C300.696 287.039 295.193 283.169 289.691 279.3C276.621 270.137 263.638 261.025 250.568 251.862C240.466 244.76 230.314 237.744 220.298 230.691C209.9 223.302 201.694 213.715 193.065 204.46C180.82 191.27 169.67 176.981 154.409 167.015C152.727 165.929 151.504 164.646 152.554 162.827C153.804 160.662 155.636 161.489 157.405 162.625C165.209 167.709 172.14 173.904 178.634 180.656C195.759 198.395 210.368 218.491 231.592 232.131C244.788 240.674 257.398 250.032 270.208 259.045C280.916 266.497 291.811 273.827 302.183 281.662C312.172 289.162 322.395 294.255 335.372 290.778C334.866 290.255 334.373 289.508 333.78 288.935C324.601 280.634 315.186 272.542 306.107 264.067C298.09 256.552 287.921 250.565 285.196 238.484C281.145 240.302 277.366 242.047 273.638 243.704C269.263 245.682 267.368 245.165 264.83 241.16C262.133 236.831 259.436 232.503 256.739 228.174C253.389 222.776 255.353 219.175 261.756 218.485C266.447 217.96 271.174 217.571 275.865 217.047C276.585 217 277.687 217.29 277.941 216.051C278.335 213.969 275.83 210.907 273.598 210.773C266.046 210.454 258.444 210.221 250.841 209.989C239.035 209.639 230.351 204.279 224.568 193.896C215.904 178.502 207.054 163.231 198.477 147.887C197.258 145.798 196.169 145.284 193.824 145.547C181.45 147.178 169.126 148.724 156.716 150.219C154.507 150.445 151.039 152.253 150.497 148.591C149.795 144.606 153.699 145.244 156.095 144.895C179.936 141.801 203.814 138.844 227.691 135.886C232.209 135.261 233.505 133.816 233.24 129.275C232.989 124.511 232.687 119.833 232.385 115.156C231.991 109.039 231.275 108.279 224.938 107.854C200.996 105.924 177.026 104.441 152.983 102.684C139.691 101.707 128.479 95.9266 119.057 86.4455C117.662 85.0625 116.553 83.3831 118.496 81.618C120.152 80.1494 121.488 81.036 122.97 82.469C125.378 84.8984 128.109 87.168 130.903 89.1278C145.865 99.6135 163.353 97.1238 180.016 98.6616C176.479 96.3884 172.352 95.7374 168.524 94.5669C156.422 90.9283 150.574 83.857 149.402 71.287C148.931 65.7033 148.46 60.1196 147.988 54.5358C147.836 52.6002 147.46 50.6512 144.705 51.0234C140.237 51.5617 135.806 52.2365 131.375 52.9114C130.418 53.1676 129.622 53.7471 128.899 54.5997C125.643 58.8396 122.386 63.0795 118.957 67.2195C110.752 77.0314 103.905 88.0897 93.6618 96.032C93.052 96.4883 91.9226 96.6445 92.252 97.8739C96.2063 98.4249 100.124 98.8392 104.078 99.3902C117.677 101.237 126.536 108.892 130.783 121.736C139.789 149.337 148.609 177.061 157.292 204.822C158.942 210.163 161.603 214.355 165.443 218.304C173.506 226.538 183.028 232.845 192.451 239.324C206.127 248.837 219.94 258.312 233.566 267.911C235.284 269.135 236.97 269.415 239.142 269.053C251.729 266.851 263.815 268.517 274.65 275.35C284.15 281.297 293.113 287.973 302.362 294.352C307.915 298.135 313.267 302.265 319.019 305.701C327.643 310.565 336.932 308.076 346.237 307.559ZM245.531 282.787C241.054 279.741 236.838 276.844 232.621 273.948C218.425 264.135 204.143 254.273 189.997 244.374C180.192 237.558 169.999 231.211 161.84 222.344C148.509 207.834 136.411 192.189 124.586 176.471C108.654 155.264 88.9575 138.58 67.0676 124.095C64.4829 122.371 62.8473 122.004 60.9241 124.935C59.0875 127.917 56.6946 130.461 54.475 133.106C51.0956 137.159 51.1456 137.072 55.0623 140.488C74.3362 157.505 93.4734 174.558 112.747 191.575C123.089 200.663 132.893 210.481 144.058 218.543C164.668 233.445 185.579 247.827 206.389 262.382C208.021 263.556 209.703 264.642 208.453 266.807C206.917 269.269 205.075 267.859 203.393 266.772C194.02 260.206 184.597 253.727 175.275 247.074C158.298 235.079 140.585 224.159 125.354 209.939C124.588 209.266 124.269 208.619 123.036 209.755C118.627 213.791 117.114 213.611 112.245 209.645C102.173 201.29 92.1882 192.984 82.0665 184.716C76.8141 180.413 76.6079 179.37 80.1811 173.581C81.0677 172.246 81.6311 171.07 80.0991 169.723C69.8443 160.685 59.5896 151.647 49.4714 142.572C48.6188 141.849 48.0626 141.412 47.0528 142.561C43.5502 146.428 42.1456 152.661 44.7427 157.162C52.5475 170.444 60.3656 183.503 74.4818 191.653C85.5669 198.053 95.6521 206.185 106.101 213.487C119.084 222.6 131.98 231.662 144.877 240.725C155.535 248.264 166.244 255.717 176.989 263.306C189.589 272.082 202.052 280.894 214.653 289.67C215.555 290.307 216.394 291.253 217.674 290.837C222.058 289.442 226.407 287.911 231.114 286.357C226.688 283.224 222.868 280.441 218.997 277.745C217.538 276.671 216.503 275.265 217.676 273.633C218.949 271.828 220.671 272.245 222.217 273.368C225.358 275.528 228.872 277.441 231.626 280.071C235.739 283.947 240.077 284.834 245.531 282.787ZM235.001 291.026C235.713 292.592 236.939 293.069 237.928 293.755C243.777 297.825 249.639 301.671 255.438 305.827C280.055 323.389 307.37 334.078 337.469 337.946C341.113 338.433 342.829 337.461 344.233 334.23C346 330.17 346.223 330.183 341.682 330.448C327.303 331.153 314.122 327.584 302.288 319.481C290.28 311.279 278.473 302.73 266.466 294.527C256.833 287.811 246.356 286.958 235.001 291.026ZM337.804 343.566C336.787 343.326 335.858 343.136 334.879 343.032C309.404 339.756 285.663 331.476 263.756 318.02C252.525 311.074 241.83 303.398 231.185 295.635C228.094 293.389 225.798 293.565 222.64 295.436C228.612 299.692 234.374 303.712 240.223 307.781C251.191 315.384 261.872 323.283 273.09 330.453C289.701 341.082 308.359 345.965 327.557 349.313C332.837 350.168 335.337 348.839 337.804 343.566Z" fill="#111013"/>
<path d="M169.06 283.439C170.396 284.325 170.688 285.418 170.471 286.794C169.563 292.967 168.705 299.053 167.797 305.226C167.553 307.049 166.557 307.974 164.821 307.781C163.085 307.587 162.21 306.504 162.453 304.682C163.375 298.285 164.16 291.926 165.168 285.58C165.575 283.274 167.214 282.835 169.06 283.439Z" fill="#1B1A1D"/>
<path d="M294.783 127.279C290.444 132.395 286.242 137.474 281.916 142.367C281.006 143.342 279.653 143.485 278.491 142.699C277.292 141.775 276.789 140.446 277.812 139.074C282.065 133.908 286.318 128.742 290.694 123.763C291.703 122.614 293.179 122.658 294.415 123.718C295.6 124.864 295.433 126.153 294.783 127.279Z" fill="#19181B"/>
<path d="M324.138 198.036C323.278 198.925 322.099 199.168 320.846 199.138C314.906 198.826 308.966 198.514 303.026 198.202C301.19 198.182 299.841 197.518 299.875 195.46C299.909 193.401 301.339 192.725 303.124 192.832C309.338 193.071 315.551 193.309 321.664 193.721C324.119 193.868 325.411 196.231 324.138 198.036Z" fill="#1A181B"/>
<path d="M121.416 253.16C121.229 253.284 120.52 253.913 119.823 254.319C114.862 257.113 109.9 259.906 104.939 262.7C103.359 263.635 101.607 264.471 100.438 262.295C99.1828 260.069 100.602 258.811 102.405 257.888C107.503 255.058 112.515 252.178 117.613 249.348C118.956 248.622 120.422 248.083 121.63 249.589C122.383 250.485 122.589 251.528 121.416 253.16Z" fill="#171619"/>
</svg>
