<svg width="33" height="33" viewBox="0 0 33 33" fill="none" xmlns="http://www.w3.org/2000/svg">
<path d="M26.111 12.7082C26.1235 15.9586 25.2235 18.5839 23.461 20.9092C23.236 21.1968 23.286 21.3468 23.536 21.5843C26.4985 24.5222 29.436 27.485 32.3985 30.4354C32.8485 30.8854 33.1485 31.3605 32.9235 32.0356C32.6235 32.9232 31.5985 33.2857 30.836 32.7482C30.636 32.6106 30.4735 32.4356 30.311 32.2606C27.411 29.3602 24.4985 26.4599 21.611 23.547C21.361 23.297 21.211 23.247 20.8985 23.4845C14.511 28.2726 5.37344 26.2849 1.57344 19.2715C-2.10157 12.4957 0.910935 3.96965 8.01095 1.00679C14.6735 -1.76855 22.386 1.39434 25.1235 8.03265C25.7735 9.62034 26.1485 11.283 26.111 12.7082ZM13.036 2.757C7.33595 2.76951 2.76094 7.38257 2.76094 13.0708C2.76094 18.6214 7.22345 23.372 13.0735 23.347C18.9235 23.322 23.3735 18.6964 23.3485 13.0333C23.336 7.05753 18.486 2.7195 13.036 2.757Z" fill="#050606"/>
</svg>
